<svg width="25" height="25" viewBox="0 0 25 25" fill="none" xmlns="http://www.w3.org/2000/svg">
<rect x="0.416667" y="0.416667" width="24.1667" height="24.1667" rx="12.0833" stroke="black" stroke-width="0.833333"/>
<path fill-rule="evenodd" clip-rule="evenodd" d="M13 8C10.2385 8 8 10.2385 8 13C8 13.945 8.2625 14.83 8.719 15.584L8.273 17.1C8.24739 17.187 8.24571 17.2794 8.26812 17.3673C8.29054 17.4552 8.33622 17.5355 8.40038 17.5996C8.46454 17.6638 8.54479 17.7095 8.63271 17.7319C8.72063 17.7543 8.81296 17.7526 8.9 17.727L10.416 17.281C11.1954 17.7525 12.0891 18.0012 13 18C15.7615 18 18 15.7615 18 13C18 10.2385 15.7615 8 13 8ZM11.869 14.1315C12.8805 15.1425 13.846 15.276 14.187 15.2885C14.7055 15.3075 15.2105 14.9115 15.407 14.452C15.4316 14.3948 15.4405 14.3321 15.4328 14.2703C15.425 14.2085 15.4009 14.1499 15.363 14.1005C15.089 13.7505 14.7185 13.499 14.3565 13.249C14.281 13.1966 14.188 13.1756 14.0973 13.1903C14.0066 13.205 13.9251 13.2544 13.87 13.328L13.57 13.7855C13.5541 13.81 13.5296 13.8276 13.5013 13.8346C13.4729 13.8417 13.443 13.8377 13.4175 13.8235C13.214 13.707 12.9175 13.509 12.7045 13.296C12.4915 13.083 12.3055 12.8 12.201 12.6095C12.1884 12.5852 12.1848 12.5572 12.1909 12.5306C12.1971 12.5039 12.2125 12.4803 12.2345 12.464L12.6965 12.121C12.7626 12.0638 12.8053 11.9842 12.8164 11.8975C12.8275 11.8107 12.8061 11.723 12.7565 11.651C12.5325 11.323 12.2715 10.906 11.893 10.6295C11.844 10.5943 11.7868 10.5724 11.7269 10.5658C11.667 10.5593 11.6064 10.5683 11.551 10.592C11.091 10.789 10.693 11.294 10.712 11.8135C10.7245 12.1545 10.858 13.12 11.869 14.1315Z" fill="black"/>
</svg>
