<svg width="30" height="30" viewBox="0 0 30 30" fill="none" xmlns="http://www.w3.org/2000/svg">
<rect x="0.5" y="0.5" width="29" height="29" rx="14.5" stroke="black"/>
<path d="M16.4141 17.4141C16.4141 17.4141 16.5117 17.3164 16.707 17.1211C16.9023 16.9258 17 16.5521 17 16C17 15.4479 16.8047 14.9766 16.4141 14.5859C16.0234 14.1953 15.5521 14 15 14C14.4479 14 13.9766 14.1953 13.5859 14.5859C13.1953 14.9766 13 15.4479 13 16C13 16.5521 13.1953 17.0234 13.5859 17.4141C13.9766 17.8047 14.4479 18 15 18C15.5521 18 16.0234 17.8047 16.4141 17.4141ZM17.1797 13.8203C17.1797 13.8203 17.3294 13.9701 17.6289 14.2695C17.9284 14.569 18.0781 15.1458 18.0781 16C18.0781 16.8542 17.7786 17.5807 17.1797 18.1797C16.5807 18.7786 15.8542 19.0781 15 19.0781C14.1458 19.0781 13.4193 18.7786 12.8203 18.1797C12.2214 17.5807 11.9219 16.8542 11.9219 16C11.9219 15.1458 12.2214 14.4193 12.8203 13.8203C13.4193 13.2214 14.1458 12.9219 15 12.9219C15.8542 12.9219 16.5807 13.2214 17.1797 13.8203ZM18.7109 12.2891C18.7109 12.2891 18.7461 12.3242 18.8164 12.3945C18.8867 12.4648 18.9219 12.599 18.9219 12.7969C18.9219 12.9948 18.8516 13.1641 18.7109 13.3047C18.5703 13.4453 18.401 13.5156 18.2031 13.5156C18.0052 13.5156 17.8359 13.4453 17.6953 13.3047C17.5547 13.1641 17.4844 12.9948 17.4844 12.7969C17.4844 12.599 17.5547 12.4297 17.6953 12.2891C17.8359 12.1484 18.0052 12.0781 18.2031 12.0781C18.401 12.0781 18.5703 12.1484 18.7109 12.2891ZM15.5977 11.0742C15.5977 11.0742 15.5072 11.0749 15.3262 11.0762C15.1452 11.0775 15.0365 11.0781 15 11.0781C14.9635 11.0781 14.7643 11.0768 14.4023 11.0742C14.0404 11.0716 13.7656 11.0716 13.5781 11.0742C13.3906 11.0768 13.1393 11.0846 12.8242 11.0977C12.5091 11.1107 12.2409 11.1367 12.0195 11.1758C11.7982 11.2148 11.612 11.263 11.4609 11.3203C11.2005 11.4245 10.9714 11.5755 10.7734 11.7734C10.5755 11.9714 10.4245 12.2005 10.3203 12.4609C10.263 12.612 10.2148 12.7982 10.1758 13.0195C10.1367 13.2409 10.1107 13.5091 10.0977 13.8242C10.0846 14.1393 10.0768 14.3906 10.0742 14.5781C10.0716 14.7656 10.0716 15.0404 10.0742 15.4023C10.0768 15.7643 10.0781 15.9635 10.0781 16C10.0781 16.0365 10.0768 16.2357 10.0742 16.5977C10.0716 16.9596 10.0716 17.2344 10.0742 17.4219C10.0768 17.6094 10.0846 17.8607 10.0977 18.1758C10.1107 18.4909 10.1367 18.7591 10.1758 18.9805C10.2148 19.2018 10.263 19.388 10.3203 19.5391C10.4245 19.7995 10.5755 20.0286 10.7734 20.2266C10.9714 20.4245 11.2005 20.5755 11.4609 20.6797C11.612 20.737 11.7982 20.7852 12.0195 20.8242C12.2409 20.8633 12.5091 20.8893 12.8242 20.9023C13.1393 20.9154 13.3906 20.9232 13.5781 20.9258C13.7656 20.9284 14.0404 20.9284 14.4023 20.9258C14.7643 20.9232 14.9635 20.9219 15 20.9219C15.0365 20.9219 15.2357 20.9232 15.5977 20.9258C15.9596 20.9284 16.2344 20.9284 16.4219 20.9258C16.6094 20.9232 16.8607 20.9154 17.1758 20.9023C17.4909 20.8893 17.7591 20.8633 17.9805 20.8242C18.2018 20.7852 18.388 20.737 18.5391 20.6797C18.7995 20.5755 19.0286 20.4245 19.2266 20.2266C19.4245 20.0286 19.5755 19.7995 19.6797 19.5391C19.737 19.388 19.7852 19.2018 19.8242 18.9805C19.8633 18.7591 19.8893 18.4909 19.9023 18.1758C19.9154 17.8607 19.9232 17.6094 19.9258 17.4219C19.9284 17.2344 19.9284 16.9596 19.9258 16.5977C19.9232 16.2357 19.9219 16.0365 19.9219 16C19.9219 15.9635 19.9232 15.7643 19.9258 15.4023C19.9284 15.0404 19.9284 14.7656 19.9258 14.5781C19.9232 14.3906 19.9154 14.1393 19.9023 13.8242C19.8893 13.5091 19.8633 13.2409 19.8242 13.0195C19.7852 12.7982 19.737 12.612 19.6797 12.4609C19.5755 12.2005 19.4245 11.9714 19.2266 11.7734C19.0286 11.5755 18.7995 11.4245 18.5391 11.3203C18.388 11.263 18.2018 11.2148 17.9805 11.1758C17.7591 11.1367 17.4909 11.1107 17.1758 11.0977C16.8607 11.0846 16.6094 11.0768 16.4219 11.0742C16.2344 11.0716 15.9596 11.0716 15.5977 11.0742ZM20.9609 13.5234C20.987 13.9818 21 14.8073 21 16C21 17.1927 20.987 18.0182 20.9609 18.4766C20.9089 19.5599 20.5859 20.3984 19.9922 20.9922C19.3984 21.5859 18.5599 21.9089 17.4766 21.9609C17.0182 21.987 16.1927 22 15 22C13.8073 22 12.9818 21.987 12.5234 21.9609C11.4401 21.9089 10.6016 21.5859 10.0078 20.9922C9.41406 20.3984 9.09115 19.5599 9.03906 18.4766C9.01302 18.0182 9 17.1927 9 16C9 14.8073 9.01302 13.9818 9.03906 13.5234C9.09115 12.4401 9.41406 11.6016 10.0078 11.0078C10.6016 10.4141 11.4401 10.0911 12.5234 10.0391C12.9818 10.013 13.8073 10 15 10C16.1927 10 17.0182 10.013 17.4766 10.0391C18.5599 10.0911 19.3984 10.4141 19.9922 11.0078C20.5859 11.6016 20.9089 12.4401 20.9609 13.5234Z" fill="black"/>
</svg>
